<svg width="123" height="33" viewBox="0 0 123 33" fill="none" xmlns="http://www.w3.org/2000/svg">
<path fill-rule="evenodd" clip-rule="evenodd" d="M17.0819 32.3237C25.9852 32.3237 33.2028 25.1061 33.2028 16.2028C33.2028 7.2994 25.9852 0.0818024 17.0819 0.0818024C8.17852 0.0818024 0.960922 7.2994 0.960922 16.2028C0.960922 25.1061 8.17852 32.3237 17.0819 32.3237Z" fill="url(#paint0_linear_52_1117)"/>
<path d="M37.7988 23.621V8.57473H42.7748C43.8137 8.57473 44.7881 8.77177 45.698 9.16583C46.608 9.55274 47.4069 10.0937 48.0947 10.7887C48.7825 11.4765 49.3199 12.2754 49.7068 13.1853C50.1009 14.0881 50.2979 15.0589 50.2979 16.0978C50.2979 17.1368 50.1009 18.1112 49.7068 19.0211C49.3199 19.9239 48.7825 20.7228 48.0947 21.4178C47.4069 22.1056 46.608 22.6465 45.698 23.0406C44.7881 23.4275 43.8137 23.621 42.7748 23.621H37.7988ZM40.0342 21.3855H42.7748C43.5056 21.3855 44.1863 21.2494 44.8168 20.9771C45.4544 20.7049 46.0169 20.3251 46.5041 19.8379C46.9985 19.3507 47.3818 18.7883 47.654 18.1506C47.9263 17.5129 48.0624 16.8287 48.0624 16.0978C48.0624 15.367 47.9263 14.6828 47.654 14.0451C47.3818 13.4074 46.9985 12.845 46.5041 12.3578C46.0169 11.8706 45.4544 11.4908 44.8168 11.2186C44.1863 10.9463 43.5056 10.8102 42.7748 10.8102H40.0342V21.3855ZM56.6964 23.9004C55.7076 23.9004 54.8049 23.646 53.9881 23.1373C53.1784 22.6286 52.53 21.948 52.0428 21.0953C51.5628 20.2356 51.3227 19.2862 51.3227 18.2473C51.3227 17.4592 51.4625 16.7248 51.7419 16.0441C52.0213 15.3563 52.4046 14.7544 52.8918 14.2386C53.3862 13.7155 53.9594 13.3071 54.6114 13.0134C55.2634 12.7196 55.9584 12.5727 56.6964 12.5727C57.6851 12.5727 58.5843 12.8271 59.394 13.3358C60.2108 13.8445 60.8592 14.5287 61.3392 15.3885C61.8264 16.2483 62.07 17.2012 62.07 18.2473C62.07 19.0283 61.9303 19.7591 61.6509 20.4398C61.3715 21.1204 60.9846 21.7223 60.4902 22.2453C60.003 22.7612 59.4334 23.166 58.7814 23.4597C58.1365 23.7535 57.4415 23.9004 56.6964 23.9004ZM56.6964 21.6649C57.2911 21.6649 57.8249 21.5073 58.2977 21.1921C58.7706 20.8768 59.1432 20.4612 59.4155 19.9454C59.6949 19.4223 59.8346 18.8563 59.8346 18.2473C59.8346 17.624 59.6913 17.0508 59.4047 16.5277C59.1253 16.0047 58.7491 15.5891 58.2762 15.281C57.8034 14.9658 57.2767 14.8082 56.6964 14.8082C56.1089 14.8082 55.5751 14.9658 55.095 15.281C54.6222 15.5963 54.246 16.0154 53.9666 16.5385C53.6943 17.0615 53.5582 17.6311 53.5582 18.2473C53.5582 18.885 53.7015 19.4618 53.9881 19.9776C54.2747 20.4935 54.6544 20.9055 55.1273 21.2136C55.6073 21.5145 56.1304 21.6649 56.6964 21.6649ZM69.418 15.1091H67.1611L67.1503 23.621H64.9149L64.9256 15.1091H63.2168V12.8737H64.9256L64.9149 9.499H67.1503L67.1611 12.8737H69.418V15.1091ZM78.3279 23.9004C77.3104 23.9004 76.3539 23.6998 75.4583 23.2985C74.5627 22.8901 73.7746 22.3277 73.0939 21.6112C72.4133 20.8947 71.8795 20.0672 71.4926 19.1286C71.1057 18.1828 70.9122 17.1726 70.9122 16.0978C70.9122 15.0231 71.1057 14.0164 71.4926 13.0779C71.8795 12.1321 72.4133 11.301 73.0939 10.5845C73.7746 9.86799 74.5627 9.30913 75.4583 8.9079C76.3539 8.4995 77.3104 8.2953 78.3279 8.2953C79.3524 8.2953 80.3125 8.4995 81.2081 8.9079C82.1037 9.30913 82.8919 9.86799 83.5725 10.5845C84.2532 11.301 84.7834 12.1321 85.1631 13.0779C85.55 14.0164 85.7435 15.0231 85.7435 16.0978C85.7435 17.1726 85.55 18.1828 85.1631 19.1286C84.7834 20.0672 84.2532 20.8947 83.5725 21.6112C82.8919 22.3277 82.1037 22.8901 81.2081 23.2985C80.3125 23.6998 79.3524 23.9004 78.3279 23.9004ZM78.3279 21.6649C79.0443 21.6649 79.7143 21.5181 80.3376 21.2243C80.9609 20.9305 81.5091 20.5293 81.9819 20.0206C82.462 19.5047 82.8346 18.9136 83.0997 18.2473C83.3719 17.5738 83.5081 16.8573 83.5081 16.0978C83.5081 15.3384 83.3719 14.6219 83.0997 13.9484C82.8346 13.2749 82.462 12.6838 81.9819 12.1751C81.5091 11.6592 80.9609 11.258 80.3376 10.9714C79.7143 10.6776 79.0443 10.5307 78.3279 10.5307C77.6114 10.5307 76.9415 10.6776 76.3181 10.9714C75.6948 11.2651 75.1431 11.67 74.663 12.1858C74.1901 12.6945 73.8176 13.2856 73.5453 13.9591C73.2802 14.6255 73.1477 15.3384 73.1477 16.0978C73.1477 16.8645 73.2802 17.5846 73.5453 18.2581C73.8176 18.9244 74.1901 19.5155 74.663 20.0314C75.1431 20.5401 75.6948 20.9413 76.3181 21.2351C76.9415 21.5216 77.6114 21.6649 78.3279 21.6649ZM87.7989 23.621V12.8737H90.0344V14.0129C90.4069 13.5686 90.8619 13.2176 91.3993 12.9596C91.9438 12.7017 92.5313 12.5727 93.1618 12.5727C93.9285 12.5727 94.6342 12.759 95.279 13.1316C95.9239 13.497 96.4362 13.9842 96.8159 14.5932C97.1956 13.9842 97.7008 13.497 98.3313 13.1316C98.9689 12.759 99.6711 12.5727 100.438 12.5727C101.233 12.5727 101.957 12.7662 102.609 13.1531C103.261 13.54 103.78 14.0594 104.167 14.7114C104.554 15.3634 104.747 16.0871 104.747 16.8824V23.621H102.512V17.452C102.512 16.9791 102.397 16.5456 102.168 16.1516C101.939 15.7575 101.631 15.4387 101.244 15.1951C100.857 14.9515 100.427 14.8297 99.9541 14.8297C99.4812 14.8297 99.0513 14.9443 98.6644 15.1736C98.2775 15.4029 97.9695 15.7145 97.7402 16.1086C97.5109 16.5027 97.3963 16.9505 97.3963 17.452V23.621H95.1608V17.452C95.1608 16.9505 95.0462 16.5027 94.8169 16.1086C94.5876 15.7145 94.276 15.4029 93.8819 15.1736C93.495 14.9443 93.0651 14.8297 92.5922 14.8297C92.1265 14.8297 91.6966 14.9515 91.3025 15.1951C90.9156 15.4387 90.6075 15.7575 90.3783 16.1516C90.149 16.5456 90.0344 16.9791 90.0344 17.452V23.621H87.7989ZM116.573 16.8824V23.621H114.338V17.4305C114.338 16.9505 114.219 16.5134 113.983 16.1193C113.754 15.7253 113.442 15.4136 113.048 15.1843C112.661 14.9479 112.224 14.8297 111.737 14.8297C111.264 14.8297 110.831 14.9479 110.436 15.1843C110.042 15.4136 109.727 15.7253 109.491 16.1193C109.254 16.5134 109.136 16.9505 109.136 17.4305V23.621H106.901V12.8737H109.136V14.0129C109.509 13.5686 109.967 13.2176 110.512 12.9596C111.056 12.7017 111.644 12.5727 112.274 12.5727C113.07 12.5727 113.793 12.7662 114.445 13.1531C115.097 13.54 115.613 14.0594 115.993 14.7114C116.38 15.3634 116.573 16.0871 116.573 16.8824ZM118.718 12.8737H120.954V23.621H118.718V12.8737ZM119.858 11.3153C119.514 11.3153 119.227 11.2042 118.998 10.9821C118.769 10.76 118.654 10.4806 118.654 10.1438C118.654 9.81425 118.769 9.53841 118.998 9.3163C119.227 9.08702 119.51 8.97238 119.847 8.97238C120.176 8.97238 120.456 9.08702 120.685 9.3163C120.914 9.53841 121.029 9.81425 121.029 10.1438C121.029 10.4806 120.914 10.76 120.685 10.9821C120.463 11.2042 120.187 11.3153 119.858 11.3153Z" fill="#5C6FDE"/>
<defs>
<linearGradient id="paint0_linear_52_1117" x1="1.6257" y1="3.7381" x2="30.7099" y2="25.8421" gradientUnits="userSpaceOnUse">
<stop stop-color="#9DACEF"/>
<stop offset="1" stop-color="#5C6FDE"/>
</linearGradient>
</defs>
</svg>
