<svg width="132" height="31" viewBox="0 0 132 31" fill="none" xmlns="http://www.w3.org/2000/svg">
<path d="M0.0484237 1V0.291938H0.333585C0.559563 0.291938 0.699453 0.412459 0.699453 0.644893C0.699453 0.878403 0.567095 1 0.356183 1H0.0484237ZM0.224901 0.861185H0.354031C0.451955 0.861185 0.524052 0.794468 0.524052 0.644893C0.524052 0.493165 0.44765 0.430752 0.34327 0.430752H0.224901V0.861185ZM1.05207 1.00861C0.876671 1.00861 0.762606 0.907457 0.762606 0.735284C0.762606 0.562035 0.876671 0.459807 1.05207 0.459807C1.22747 0.459807 1.34154 0.562035 1.34154 0.735284C1.34154 0.907457 1.22747 1.00861 1.05207 1.00861ZM1.05207 0.883783C1.1317 0.883783 1.17797 0.828903 1.17797 0.735284C1.17797 0.640589 1.1317 0.584632 1.05207 0.584632C0.972442 0.584632 0.926171 0.640589 0.926171 0.735284C0.926171 0.828903 0.972442 0.883783 1.05207 0.883783ZM1.68341 1.00861C1.5177 1.00861 1.45851 0.935435 1.45851 0.817066V0.595393H1.37996V0.468415H1.44345C1.4682 0.468415 1.47681 0.454426 1.48003 0.422144L1.48757 0.347894H1.62208V0.468415H1.7921V0.595393H1.62208V0.808457C1.62208 0.863338 1.6479 0.880555 1.71247 0.880555C1.73506 0.880555 1.76842 0.877327 1.78672 0.873022V0.996772C1.77273 1 1.72753 1.00861 1.68341 1.00861ZM3.18507 1.01076C2.95802 1.01076 2.89883 0.887011 2.89883 0.758958H2.98277C2.98277 0.861185 3.03442 0.933283 3.18507 0.933283C3.34756 0.933283 3.39275 0.869794 3.39275 0.802001C3.39275 0.756805 3.37338 0.732056 3.3368 0.71699C3.29806 0.700849 3.21735 0.69224 3.15601 0.683632C3.08284 0.675023 3.00536 0.657806 2.96662 0.634132C2.92573 0.609382 2.89668 0.562035 2.89668 0.495317C2.89668 0.369416 3.0129 0.281177 3.18184 0.281177C3.37984 0.281177 3.45839 0.372644 3.45839 0.536209H3.37446C3.37446 0.412459 3.30559 0.358655 3.18399 0.358655C3.06885 0.358655 2.98707 0.410307 2.98707 0.487785C2.98707 0.53298 3.00429 0.559882 3.03442 0.574948C3.06885 0.592165 3.15386 0.605078 3.2152 0.613686C3.28622 0.623371 3.36047 0.635208 3.40674 0.658882C3.45409 0.682556 3.48314 0.732056 3.48314 0.79662C3.48314 0.904229 3.41643 1.01076 3.18507 1.01076ZM3.61715 1V0.254275H3.70324V0.500698C3.70324 0.529752 3.70108 0.593241 3.70108 0.61261H3.70216C3.73121 0.520067 3.80546 0.459807 3.93244 0.459807C4.07233 0.459807 4.15519 0.540513 4.15519 0.667491V1H4.0691V0.685784C4.0691 0.595393 4.01745 0.537285 3.90339 0.537285C3.78179 0.537285 3.70324 0.614763 3.70324 0.749273V1H3.61715ZM4.30008 1V0.468415H4.38617L4.38402 0.609382H4.38509C4.40769 0.517915 4.47548 0.459807 4.57126 0.459807C4.67564 0.459807 4.74451 0.514687 4.75742 0.599697H4.75849C4.77679 0.514687 4.84566 0.459807 4.94573 0.459807C5.06625 0.459807 5.1362 0.539437 5.1362 0.663186V1H5.05011V0.68148C5.05011 0.593241 5.00707 0.537285 4.92206 0.537285C4.82414 0.537285 4.76172 0.609382 4.76172 0.732056V1H4.67564V0.678251C4.67564 0.592165 4.63152 0.537285 4.54651 0.537285C4.44858 0.537285 4.38617 0.610458 4.38617 0.73636V1H4.30008Z" fill="#3F3F3F"/>
<path d="M1.22336 22.3906V4.50372H8.42705C14.1356 4.50372 17.6695 7.5483 17.6695 13.42C17.6695 19.3189 14.3259 22.3906 8.99791 22.3906H1.22336ZM5.68149 18.8839H8.94355C11.4173 18.8839 13.2386 17.1985 13.2386 13.42C13.2386 9.58709 11.3085 8.01043 8.67171 8.01043H5.68149V18.8839Z" fill="#3F3F3F"/>
<path d="M26.5773 22.6081C22.1464 22.6081 19.2649 20.0528 19.2649 15.7034C19.2649 11.3268 22.1464 8.74439 26.5773 8.74439C31.0083 8.74439 33.8897 11.3268 33.8897 15.7034C33.8897 20.0528 31.0083 22.6081 26.5773 22.6081ZM26.5773 19.4548C28.5889 19.4548 29.7578 18.0684 29.7578 15.7034C29.7578 13.3113 28.5889 11.8977 26.5773 11.8977C24.5657 11.8977 23.3968 13.3113 23.3968 15.7034C23.3968 18.0684 24.5657 19.4548 26.5773 19.4548Z" fill="#3F3F3F"/>
<path d="M42.5261 22.6081C38.3398 22.6081 36.8447 20.7596 36.8447 17.7694V12.1695H34.8603V8.96186H36.4641C37.0894 8.96186 37.3068 8.60847 37.3884 7.79296L37.5787 5.91728H40.9766V8.96186H45.2717V12.1695H40.9766V17.5519C40.9766 18.9383 41.629 19.3732 43.2601 19.3732C43.8309 19.3732 44.6736 19.2917 45.1357 19.183V22.3091C44.7824 22.3906 43.6406 22.6081 42.5261 22.6081Z" fill="#3F3F3F"/>
<path d="M80.4606 22.6625C74.7248 22.6625 73.2297 19.5363 73.2297 16.3015H75.3501C75.3501 18.8839 76.6549 20.7052 80.4606 20.7052C84.5654 20.7052 85.7071 19.1014 85.7071 17.3888C85.7071 16.2471 85.2178 15.6219 84.2935 15.2413C83.3149 14.8336 81.2761 14.6161 79.7266 14.3986C77.8782 14.1811 75.9209 13.7462 74.9423 13.1482C73.9093 12.5229 73.1754 11.3268 73.1754 9.64145C73.1754 6.46095 76.1112 4.23189 80.3791 4.23189C85.3809 4.23189 87.3653 6.54251 87.3653 10.6744H85.245C85.245 7.5483 83.5052 6.18912 80.4334 6.18912C77.5248 6.18912 75.4588 7.49394 75.4588 9.45117C75.4588 10.5929 75.8937 11.2725 76.6549 11.6531C77.5248 12.088 79.6723 12.4142 81.2218 12.6317C83.0159 12.8763 84.8916 13.1753 86.0605 13.7734C87.2565 14.3714 87.9905 15.6219 87.9905 17.2529C87.9905 19.9713 86.3051 22.6625 80.4606 22.6625Z" fill="#3F3F3F"/>
<path d="M91.3757 22.3906V3.55229H93.5504V9.77737C93.5504 10.5113 93.4961 12.1152 93.4961 12.6045H93.5233C94.2572 10.2667 96.1329 8.74439 99.3406 8.74439C102.874 8.74439 104.968 10.7832 104.968 13.9909V22.3906H102.793V14.453C102.793 12.1695 101.488 10.7016 98.6066 10.7016C95.5349 10.7016 93.5504 12.6589 93.5504 16.0568V22.3906H91.3757Z" fill="#3F3F3F"/>
<path d="M108.628 22.3906V8.96186H110.803L110.748 12.5229H110.775C111.346 10.2123 113.059 8.74439 115.478 8.74439C118.115 8.74439 119.855 10.1308 120.181 12.2783H120.208C120.67 10.1308 122.41 8.74439 124.938 8.74439C127.983 8.74439 129.75 10.756 129.75 13.8821V22.3906H127.575V14.3442C127.575 12.1152 126.488 10.7016 124.34 10.7016C121.866 10.7016 120.29 12.5229 120.29 15.6219V22.3906H118.115V14.2627C118.115 12.088 117 10.7016 114.853 10.7016C112.379 10.7016 110.803 12.5501 110.803 15.7306V22.3906H108.628Z" fill="#3F3F3F"/>
<mask id="mask0_52_1138" style="mask-type:alpha" maskUnits="userSpaceOnUse" x="49" y="4" width="22" height="22">
<circle cx="59.8901" cy="15.1087" r="10.2857" fill="#D9D9D9"/>
</mask>
<g mask="url(#mask0_52_1138)">
<g filter="url(#filter0_d_52_1138)">
<rect width="25.285" height="22.3117" transform="matrix(1 0 0 -1 46.8424 26.2962)" fill="url(#paint0_linear_52_1138)"/>
<rect x="0.000463389" y="-0.000463389" width="25.2841" height="22.3107" transform="matrix(1 0 0 -1 46.8424 26.2952)" stroke="#333333" stroke-width="0.000926777"/>
</g>
</g>
<defs>
<filter id="filter0_d_52_1138" x="46.8387" y="3.98448" width="25.2924" height="22.3191" filterUnits="userSpaceOnUse" color-interpolation-filters="sRGB">
<feFlood flood-opacity="0" result="BackgroundImageFix"/>
<feColorMatrix in="SourceAlpha" type="matrix" values="0 0 0 0 0 0 0 0 0 0 0 0 0 0 0 0 0 0 127 0" result="hardAlpha"/>
<feOffset dy="0.00370711"/>
<feGaussianBlur stdDeviation="0.00185355"/>
<feComposite in2="hardAlpha" operator="out"/>
<feColorMatrix type="matrix" values="0 0 0 0 0 0 0 0 0 0 0 0 0 0 0 0 0 0 0.25 0"/>
<feBlend mode="normal" in2="BackgroundImageFix" result="effect1_dropShadow_52_1138"/>
<feBlend mode="normal" in="SourceGraphic" in2="effect1_dropShadow_52_1138" result="shape"/>
</filter>
<linearGradient id="paint0_linear_52_1138" x1="1.50011" y1="13.9116" x2="26.693" y2="11.4796" gradientUnits="userSpaceOnUse">
<stop stop-color="#7BCEFA"/>
<stop offset="0.213542" stop-color="#ADA6F8"/>
<stop offset="0.484375" stop-color="#E37DF4"/>
<stop offset="0.739583" stop-color="#EFAD97"/>
<stop offset="1" stop-color="#F6CB5B"/>
</linearGradient>
</defs>
</svg>
