<svg width="94" height="32" viewBox="0 0 94 32" fill="none" xmlns="http://www.w3.org/2000/svg">
<circle cx="15.6316" cy="15.6318" r="15.426" fill="url(#paint0_linear_52_1105)"/>
<path d="M35.1712 23.1318V8.4051H39.6755C41.9243 8.4051 43.7274 9.08385 45.0849 10.4413C46.4561 11.7988 47.1417 13.5745 47.1417 15.7684C47.1417 17.9761 46.4561 19.7586 45.0849 21.1161C43.7274 22.4599 41.9243 23.1318 39.6755 23.1318H35.1712ZM37.0634 10.2151V21.3218H39.6755C41.3895 21.3218 42.7402 20.835 43.7274 19.8615C44.7147 18.8742 45.2083 17.5099 45.2083 15.7684C45.2083 14.0407 44.7147 12.6832 43.7274 11.696C42.7402 10.7087 41.3895 10.2151 39.6755 10.2151H37.0634ZM48.1857 18.0926C48.1857 16.5432 48.6725 15.2611 49.646 14.2464C50.6333 13.2317 51.8742 12.7244 53.3688 12.7244C54.8634 12.7244 56.0975 13.2317 57.0711 14.2464C58.0583 15.2611 58.5519 16.5432 58.5519 18.0926C58.5519 19.6558 58.0583 20.9378 57.0711 21.9388C56.0975 22.9535 54.8634 23.4608 53.3688 23.4608C51.8742 23.4608 50.6333 22.9535 49.646 21.9388C48.6725 20.9241 48.1857 19.6421 48.1857 18.0926ZM50.0779 18.0926C50.0779 19.1759 50.3933 20.0534 51.0241 20.7253C51.6548 21.3972 52.4364 21.7331 53.3688 21.7331C54.3012 21.7331 55.0828 21.3972 55.7136 20.7253C56.3443 20.0534 56.6597 19.1759 56.6597 18.0926C56.6597 17.0231 56.3443 16.1524 55.7136 15.4805C55.0691 14.7949 54.2875 14.4521 53.3688 14.4521C52.4501 14.4521 51.6685 14.7949 51.0241 15.4805C50.3933 16.1524 50.0779 17.0231 50.0779 18.0926ZM63.9597 23.2963C63.137 23.2963 62.4514 23.0426 61.9029 22.5353C61.3681 22.0279 61.0939 21.3218 61.0802 20.4168V14.7812H59.3114V13.0535H61.0802V9.96827H62.9724V13.0535H65.4406V14.7812H62.9724V19.7998C62.9724 20.4716 63.1027 20.931 63.3632 21.1778C63.6238 21.4109 63.9186 21.5275 64.2477 21.5275C64.3985 21.5275 64.5425 21.5137 64.6796 21.4863C64.8304 21.4452 64.9675 21.3972 65.0909 21.3423L65.6874 23.0289C65.1938 23.2072 64.6179 23.2963 63.9597 23.2963ZM76.6607 19.2033C76.6607 20.4922 76.1877 21.5275 75.2416 22.309C74.2817 23.0769 73.1162 23.4608 71.745 23.4608C70.5246 23.4608 69.4482 23.1043 68.5158 22.3913C67.5834 21.6783 66.939 20.7047 66.5824 19.4707L68.3924 18.7302C68.5158 19.169 68.6872 19.5666 68.9066 19.9232C69.126 20.2797 69.3797 20.5882 69.6676 20.8487C69.9693 21.0955 70.2984 21.2944 70.6549 21.4452C71.0114 21.5823 71.3885 21.6509 71.7861 21.6509C72.65 21.6509 73.3562 21.4315 73.9046 20.9927C74.4531 20.5402 74.7274 19.9437 74.7274 19.2033C74.7274 18.5862 74.5011 18.0583 74.0486 17.6195C73.6235 17.1945 72.8282 16.7831 71.6627 16.3855C70.4835 15.9604 69.7499 15.6724 69.462 15.5216C67.8988 14.7263 67.1172 13.5539 67.1172 12.0045C67.1172 10.9213 67.5491 9.99569 68.413 9.22782C69.2906 8.45995 70.3669 8.07602 71.6422 8.07602C72.7665 8.07602 73.7401 8.36397 74.5628 8.93987C75.3855 9.50206 75.934 10.2082 76.2082 11.0584L74.4394 11.7988C74.2749 11.2503 73.9458 10.7978 73.4521 10.4413C72.9722 10.0711 72.3826 9.886 71.6833 9.886C70.9429 9.886 70.319 10.0917 69.8116 10.503C69.3043 10.887 69.0506 11.3875 69.0506 12.0045C69.0506 12.5118 69.2494 12.9506 69.6471 13.3208C70.0859 13.6911 71.0388 14.1299 72.506 14.6372C74.0006 15.1445 75.0633 15.7684 75.694 16.5089C76.3385 17.2356 76.6607 18.1337 76.6607 19.2033ZM83.1342 23.4608C81.6533 23.4608 80.4329 22.9535 79.4731 21.9388C78.5133 20.9241 78.0333 19.6421 78.0333 18.0926C78.0333 16.5569 78.4995 15.2817 79.432 14.267C80.3644 13.2386 81.5573 12.7244 83.0108 12.7244C84.5054 12.7244 85.6915 13.2111 86.569 14.1847C87.4603 15.1445 87.906 16.4952 87.906 18.2366L87.8854 18.4423H79.9667C79.9941 19.4295 80.3232 20.2248 80.954 20.8281C81.5847 21.4315 82.3389 21.7331 83.2165 21.7331C84.4231 21.7331 85.3692 21.1298 86.0548 19.9232L87.7414 20.7459C87.2889 21.596 86.6582 22.261 85.8492 22.741C85.0539 23.2209 84.1489 23.4608 83.1342 23.4608ZM80.1107 16.8791H85.8903C85.8354 16.1798 85.5475 15.6039 85.0264 15.1514C84.5191 14.6852 83.8335 14.4521 82.9696 14.4521C82.2566 14.4521 81.6396 14.6715 81.1185 15.1103C80.6112 15.549 80.2752 16.1387 80.1107 16.8791ZM92.084 9.57748C92.084 9.9477 91.9537 10.2631 91.6932 10.5236C91.4327 10.7841 91.1173 10.9144 90.7471 10.9144C90.3768 10.9144 90.0615 10.7841 89.8009 10.5236C89.5404 10.2631 89.4101 9.9477 89.4101 9.57748C89.4101 9.20725 89.5404 8.89188 89.8009 8.63135C90.0615 8.37082 90.3768 8.24056 90.7471 8.24056C91.1173 8.24056 91.4327 8.37082 91.6932 8.63135C91.9537 8.89188 92.084 9.20725 92.084 9.57748ZM91.6932 13.0535V23.1318H89.8009V13.0535H91.6932Z" fill="black"/>
<defs>
<linearGradient id="paint0_linear_52_1105" x1="8.09391" y1="2.15352" x2="23.5978" y2="29.558" gradientUnits="userSpaceOnUse">
<stop stop-color="#93315B"/>
<stop offset="1" stop-color="#DF3C41"/>
</linearGradient>
</defs>
</svg>
