<svg width="129" height="31" viewBox="0 0 129 31" fill="none" xmlns="http://www.w3.org/2000/svg">
<circle cx="15.3937" cy="15.3937" r="15.1911" fill="url(#paint0_linear_52_1050)"/>
<path d="M41.5339 9.06239C43.0327 9.06239 44.3426 9.35271 45.4633 9.93335C46.5976 10.5005 47.4686 11.3242 48.0762 12.4044C48.6973 13.4712 49.0079 14.7202 49.0079 16.1516C49.0079 17.5829 48.6973 18.8252 48.0762 19.8785C47.4686 20.9317 46.5976 21.7419 45.4633 22.309C44.3426 22.8627 43.0327 23.1395 41.5339 23.1395H36.936V9.06239H41.5339ZM41.5339 21.2558C43.1813 21.2558 44.4438 20.8102 45.3215 19.919C46.1993 19.0278 46.6381 17.772 46.6381 16.1516C46.6381 14.5177 46.1993 13.2416 45.3215 12.3234C44.4438 11.4052 43.1813 10.9461 41.5339 10.9461H39.2451V21.2558H41.5339ZM56.1373 23.3218C55.0841 23.3218 54.1321 23.0855 53.2814 22.6129C52.4307 22.1268 51.7623 21.4516 51.2761 20.5874C50.79 19.7097 50.547 18.6969 50.547 17.5492C50.547 16.4149 50.7968 15.4089 51.2964 14.5312C51.796 13.6535 52.4779 12.9783 53.3421 12.5057C54.2063 12.0331 55.1718 11.7968 56.2386 11.7968C57.3053 11.7968 58.2708 12.0331 59.135 12.5057C59.9992 12.9783 60.6811 13.6535 61.1808 14.5312C61.6804 15.4089 61.9302 16.4149 61.9302 17.5492C61.9302 18.6834 61.6736 19.6894 61.1605 20.5671C60.6474 21.4448 59.9452 22.1268 59.054 22.6129C58.1763 23.0855 57.2041 23.3218 56.1373 23.3218ZM56.1373 21.3166C56.7314 21.3166 57.2851 21.1748 57.7982 20.8912C58.3248 20.6076 58.7502 20.1823 59.0743 19.6152C59.3983 19.048 59.5604 18.3594 59.5604 17.5492C59.5604 16.739 59.4051 16.0571 59.0945 15.5034C58.7839 14.9363 58.3721 14.5109 57.859 14.2274C57.3458 13.9438 56.7922 13.802 56.1981 13.802C55.6039 13.802 55.0503 13.9438 54.5372 14.2274C54.0376 14.5109 53.6392 14.9363 53.3421 15.5034C53.0451 16.0571 52.8965 16.739 52.8965 17.5492C52.8965 18.7509 53.2004 19.6827 53.808 20.3443C54.4291 20.9925 55.2056 21.3166 56.1373 21.3166ZM66.9067 13.8628V20.0405C66.9067 20.4591 67.0012 20.7629 67.1903 20.952C67.3928 21.1275 67.7304 21.2153 68.203 21.2153H69.6209V23.1395H67.7979C66.7582 23.1395 65.9615 22.8964 65.4078 22.4103C64.8542 21.9242 64.5774 21.1343 64.5774 20.0405V13.8628H63.2608V11.9791H64.5774V9.20417H66.9067V11.9791H69.6209V13.8628H66.9067ZM80.8435 9.06239V10.9461H77.0963V23.1395H74.7873V10.9461H71.0199V9.06239H80.8435ZM82.4122 17.5087C82.4122 16.3879 82.6418 15.3954 83.1009 14.5312C83.5735 13.667 84.2082 12.9986 85.0049 12.526C85.8151 12.0398 86.7063 11.7968 87.6785 11.7968C88.5562 11.7968 89.3191 11.9723 89.9673 12.3234C90.629 12.661 91.1556 13.0863 91.5472 13.5995V11.9791H93.8765V23.1395H91.5472V21.4786C91.1556 22.0052 90.6222 22.4441 89.947 22.7952C89.2719 23.1462 88.5022 23.3218 87.638 23.3218C86.6793 23.3218 85.8016 23.0787 85.0049 22.5926C84.2082 22.093 83.5735 21.4043 83.1009 20.5266C82.6418 19.6354 82.4122 18.6294 82.4122 17.5087ZM91.5472 17.5492C91.5472 16.7795 91.3851 16.1111 91.0611 15.5439C90.7505 14.9768 90.3386 14.5447 89.8255 14.2476C89.3124 13.9506 88.7588 13.802 88.1646 13.802C87.5705 13.802 87.0168 13.9506 86.5037 14.2476C85.9906 14.5312 85.572 14.9565 85.2479 15.5237C84.9373 16.0773 84.7821 16.739 84.7821 17.5087C84.7821 18.2783 84.9373 18.9535 85.2479 19.5341C85.572 20.1148 85.9906 20.5604 86.5037 20.871C87.0303 21.168 87.584 21.3166 88.1646 21.3166C88.7588 21.3166 89.3124 21.168 89.8255 20.871C90.3386 20.5739 90.7505 20.1418 91.0611 19.5746C91.3851 18.994 91.5472 18.3188 91.5472 17.5492ZM98.0841 10.5005C97.6655 10.5005 97.3144 10.3587 97.0309 10.0751C96.7473 9.79156 96.6055 9.44048 96.6055 9.02188C96.6055 8.60328 96.7473 8.2522 97.0309 7.96863C97.3144 7.68506 97.6655 7.54328 98.0841 7.54328C98.4892 7.54328 98.8335 7.68506 99.1171 7.96863C99.4007 8.2522 99.5425 8.60328 99.5425 9.02188C99.5425 9.44048 99.4007 9.79156 99.1171 10.0751C98.8335 10.3587 98.4892 10.5005 98.0841 10.5005ZM99.2184 11.9791V23.1395H96.9093V11.9791H99.2184ZM106.666 17.5694L111.81 23.1395H108.691L104.559 18.3391V23.1395H102.25V8.15092H104.559V16.8605L108.61 11.9791H111.81L106.666 17.5694ZM118.306 23.3218C117.253 23.3218 116.301 23.0855 115.45 22.6129C114.6 22.1268 113.931 21.4516 113.445 20.5874C112.959 19.7097 112.716 18.6969 112.716 17.5492C112.716 16.4149 112.966 15.4089 113.465 14.5312C113.965 13.6535 114.647 12.9783 115.511 12.5057C116.375 12.0331 117.341 11.7968 118.407 11.7968C119.474 11.7968 120.44 12.0331 121.304 12.5057C122.168 12.9783 122.85 13.6535 123.35 14.5312C123.849 15.4089 124.099 16.4149 124.099 17.5492C124.099 18.6834 123.843 19.6894 123.329 20.5671C122.816 21.4448 122.114 22.1268 121.223 22.6129C120.345 23.0855 119.373 23.3218 118.306 23.3218ZM118.306 21.3166C118.9 21.3166 119.454 21.1748 119.967 20.8912C120.494 20.6076 120.919 20.1823 121.243 19.6152C121.567 19.048 121.729 18.3594 121.729 17.5492C121.729 16.739 121.574 16.0571 121.263 15.5034C120.953 14.9363 120.541 14.5109 120.028 14.2274C119.515 13.9438 118.961 13.802 118.367 13.802C117.773 13.802 117.219 13.9438 116.706 14.2274C116.206 14.5109 115.808 14.9363 115.511 15.5034C115.214 16.0571 115.065 16.739 115.065 17.5492C115.065 18.7509 115.369 19.6827 115.977 20.3443C116.598 20.9925 117.374 21.3166 118.306 21.3166Z" fill="#333333"/>
<defs>
<linearGradient id="paint0_linear_52_1050" x1="0.528742" y1="-0.272177" x2="24.2649" y2="30.1101" gradientUnits="userSpaceOnUse">
<stop stop-color="#EF93CC"/>
<stop offset="0.559984" stop-color="#E81899"/>
<stop offset="1" stop-color="#A30065"/>
</linearGradient>
</defs>
</svg>
