<svg width="142" height="37" viewBox="0 0 142 37" fill="none" xmlns="http://www.w3.org/2000/svg">
<circle cx="52.5015" cy="24.7229" r="10.6278" fill="#F85888"/>
<circle cx="16.4731" cy="18.665" r="16.4731" fill="#F85888"/>
<path d="M39.323 14.1946L43.149 14.1946L34.1154 35.2445L30.0768 35.2445L39.323 14.1946Z" fill="#F85888"/>
<path d="M75.7127 1.50611C77.2857 1.50611 78.6602 1.81078 79.8363 2.42011C81.0267 3.01527 81.9406 3.87966 82.5783 5.0133C83.2302 6.13277 83.5561 7.44353 83.5561 8.9456C83.5561 10.4477 83.2302 11.7513 82.5783 12.8566C81.9406 13.9619 81.0267 14.8122 79.8363 15.4073C78.6602 15.9883 77.2857 16.2788 75.7127 16.2788H70.8877V1.50611H75.7127ZM75.7127 14.302C77.4415 14.302 78.7665 13.8344 79.6875 12.8992C80.6086 11.9639 81.0692 10.6461 81.0692 8.9456C81.0692 7.23098 80.6086 5.89187 79.6875 4.92828C78.7665 3.96469 77.4415 3.48289 75.7127 3.48289H73.3108V14.302H75.7127ZM89.5498 16.4701C88.4445 16.4701 87.4455 16.2221 86.5528 15.7262C85.6601 15.216 84.9586 14.5075 84.4485 13.6006C83.9383 12.6795 83.6833 11.6167 83.6833 10.4122C83.6833 9.22192 83.9454 8.16623 84.4697 7.24515C84.994 6.32407 85.7097 5.61554 86.6166 5.11958C87.5235 4.62361 88.5367 4.37563 89.6561 4.37563C90.7756 4.37563 91.7888 4.62361 92.6957 5.11958C93.6026 5.61554 94.3182 6.32407 94.8425 7.24515C95.3668 8.16623 95.629 9.22192 95.629 10.4122C95.629 11.6026 95.3597 12.6583 94.8213 13.5793C94.2828 14.5004 93.5459 15.216 92.6107 15.7262C91.6896 16.2221 90.6693 16.4701 89.5498 16.4701ZM89.5498 14.3658C90.1733 14.3658 90.7543 14.217 91.2928 13.9194C91.8455 13.6218 92.2918 13.1755 92.6319 12.5803C92.972 11.9852 93.1421 11.2625 93.1421 10.4122C93.1421 9.56201 92.9791 8.84641 92.6532 8.26542C92.3273 7.67026 91.8951 7.22389 91.3566 6.92631C90.8181 6.62873 90.2371 6.47994 89.6136 6.47994C88.9901 6.47994 88.4091 6.62873 87.8706 6.92631C87.3463 7.22389 86.9283 7.67026 86.6166 8.26542C86.3048 8.84641 86.1489 9.56201 86.1489 10.4122C86.1489 11.6734 86.4678 12.6512 87.1054 13.3455C87.7573 14.0257 88.5721 14.3658 89.5498 14.3658ZM99.3635 6.54371V13.0267C99.3635 13.466 99.4627 13.7848 99.6611 13.9832C99.8736 14.1674 100.228 14.2595 100.724 14.2595H102.212V16.2788H100.299C99.2076 16.2788 98.3716 16.0237 97.7906 15.5136C97.2096 15.0035 96.9191 14.1745 96.9191 13.0267V6.54371H95.5375V4.56693H96.9191V1.6549H99.3635V4.56693H102.212V6.54371H99.3635ZM83.4498 34.2788H80.474L73.736 24.0973V34.2788H70.7602V19.4211H73.736L80.474 29.6238V19.4211H83.4498V34.2788ZM84.1375 28.3485C84.1375 27.1582 84.3713 26.1025 84.8389 25.1814C85.3207 24.2603 85.9654 23.5518 86.7732 23.0558C87.595 22.5598 88.509 22.3119 89.5151 22.3119C90.3937 22.3119 91.1589 22.489 91.8108 22.8433C92.4768 23.1975 93.0082 23.6439 93.4049 24.1824V22.5032H96.402V34.2788H93.4049V32.5571C93.0223 33.1097 92.4909 33.5703 91.8108 33.9387C91.1447 34.293 90.3724 34.4701 89.4939 34.4701C88.502 34.4701 87.595 34.215 86.7732 33.7049C85.9654 33.1948 85.3207 32.4792 84.8389 31.5581C84.3713 30.6228 84.1375 29.553 84.1375 28.3485ZM93.4049 28.391C93.4049 27.6683 93.2632 27.0519 92.9798 26.5417C92.6964 26.0174 92.3138 25.6207 91.832 25.3514C91.3502 25.068 90.833 24.9263 90.2803 24.9263C89.7277 24.9263 89.2176 25.0609 88.7499 25.3302C88.2823 25.5994 87.8997 25.9962 87.6021 26.5205C87.3187 27.0306 87.177 27.64 87.177 28.3485C87.177 29.057 87.3187 29.6805 87.6021 30.219C87.8997 30.7433 88.2823 31.1471 88.7499 31.4305C89.2317 31.714 89.7419 31.8557 90.2803 31.8557C90.833 31.8557 91.3502 31.721 91.832 31.4518C92.3138 31.1684 92.6964 30.7716 92.9798 30.2615C93.2632 29.7372 93.4049 29.1137 93.4049 28.391ZM112.444 22.3331C113.89 22.3331 115.052 22.7795 115.93 23.6722C116.823 24.5508 117.269 25.7836 117.269 27.3707V34.2788H114.294V27.7746C114.294 26.8535 114.06 26.1521 113.592 25.6703C113.125 25.1743 112.487 24.9263 111.679 24.9263C110.871 24.9263 110.227 25.1743 109.745 25.6703C109.277 26.1521 109.043 26.8535 109.043 27.7746V34.2788H106.068V27.7746C106.068 26.8535 105.834 26.1521 105.366 25.6703C104.899 25.1743 104.261 24.9263 103.453 24.9263C102.631 24.9263 101.979 25.1743 101.498 25.6703C101.03 26.1521 100.796 26.8535 100.796 27.7746V34.2788H97.8205V22.5032H100.796V23.9273C101.179 23.4313 101.668 23.0416 102.263 22.7582C102.872 22.4748 103.538 22.3331 104.261 22.3331C105.182 22.3331 106.004 22.5315 106.727 22.9283C107.449 23.3109 108.009 23.8635 108.406 24.5862C108.788 23.906 109.341 23.3605 110.064 22.9495C110.801 22.5386 111.594 22.3331 112.444 22.3331ZM129.552 28.1359C129.552 28.561 129.524 28.9436 129.467 29.2837H120.858C120.929 30.134 121.227 30.8 121.751 31.2818C122.276 31.7636 122.92 32.0045 123.685 32.0045C124.791 32.0045 125.577 31.5297 126.045 30.5803H129.254C128.914 31.714 128.263 32.6492 127.299 33.3861C126.335 34.1088 125.152 34.4701 123.749 34.4701C122.616 34.4701 121.595 34.2221 120.688 33.7262C119.796 33.216 119.094 32.5004 118.584 31.5793C118.088 30.6583 117.84 29.5955 117.84 28.391C117.84 27.1723 118.088 26.1025 118.584 25.1814C119.08 24.2603 119.774 23.5518 120.667 23.0558C121.56 22.5598 122.587 22.3119 123.749 22.3119C124.869 22.3119 125.868 22.5528 126.746 23.0346C127.639 23.5164 128.326 24.2036 128.808 25.0964C129.304 25.9749 129.552 26.9881 129.552 28.1359ZM126.47 27.2857C126.456 26.5205 126.179 25.9112 125.641 25.4577C125.103 24.9901 124.444 24.7563 123.664 24.7563C122.927 24.7563 122.304 24.983 121.794 25.4364C121.298 25.8757 120.993 26.4921 120.88 27.2857H126.47ZM134.742 34.4701C133.779 34.4701 132.914 34.3001 132.149 33.96C131.384 33.6057 130.775 33.131 130.321 32.5358C129.882 31.9407 129.641 31.2818 129.599 30.5591H132.596C132.652 31.0125 132.872 31.388 133.254 31.6856C133.651 31.9832 134.14 32.132 134.721 32.132C135.288 32.132 135.727 32.0186 136.039 31.7919C136.365 31.5652 136.528 31.2747 136.528 30.9204C136.528 30.5378 136.329 30.2544 135.933 30.0702C135.55 29.8718 134.934 29.6592 134.083 29.4325C133.205 29.22 132.482 29.0003 131.915 28.7736C131.363 28.5469 130.881 28.1997 130.47 27.7321C130.073 27.2644 129.875 26.6339 129.875 25.8403C129.875 25.1885 130.059 24.5933 130.427 24.0548C130.81 23.5164 131.349 23.0912 132.043 22.7795C132.751 22.4677 133.58 22.3119 134.53 22.3119C135.933 22.3119 137.052 22.6661 137.888 23.3746C138.724 24.069 139.185 25.0113 139.27 26.2017H136.422C136.379 25.734 136.181 25.3656 135.826 25.0964C135.486 24.8129 135.026 24.6712 134.445 24.6712C133.906 24.6712 133.488 24.7704 133.191 24.9688C132.907 25.1672 132.766 25.4435 132.766 25.7978C132.766 26.1946 132.964 26.4992 133.361 26.7118C133.758 26.9102 134.374 27.1156 135.21 27.3282C136.06 27.5408 136.762 27.7604 137.314 27.9871C137.867 28.2139 138.342 28.5681 138.738 29.0499C139.149 29.5175 139.362 30.141 139.376 30.9204C139.376 31.6006 139.185 32.2099 138.802 32.7484C138.434 33.2869 137.895 33.712 137.187 34.0237C136.492 34.3213 135.678 34.4701 134.742 34.4701Z" fill="#F85888"/>
</svg>
