<svg width="142" height="37" viewBox="0 0 142 37" fill="none" xmlns="http://www.w3.org/2000/svg">
<circle cx="52.5009" cy="24.7216" r="10.6278" fill="#333333"/>
<circle cx="16.4731" cy="18.6646" r="16.4731" fill="#333333"/>
<path d="M39.3238 14.195L43.1498 14.195L34.1162 35.2448L30.0776 35.2448L39.3238 14.195Z" fill="#333333"/>
<path d="M75.7122 1.5066C77.2851 1.5066 78.6596 1.81127 79.8358 2.4206C81.0261 3.01576 81.9401 3.88015 82.5778 5.01379C83.2296 6.13325 83.5555 7.44402 83.5555 8.94609C83.5555 10.4482 83.2296 11.7518 82.5778 12.8571C81.9401 13.9624 81.0261 14.8127 79.8358 15.4078C78.6596 15.9888 77.2851 16.2793 75.7122 16.2793H70.8871V1.5066H75.7122ZM75.7122 14.3025C77.441 14.3025 78.7659 13.8349 79.687 12.8996C80.6081 11.9644 81.0686 10.6465 81.0686 8.94609C81.0686 7.23146 80.6081 5.89236 79.687 4.92877C78.7659 3.96518 77.441 3.48338 75.7122 3.48338H73.3103V14.3025H75.7122ZM89.5493 16.4706C88.444 16.4706 87.445 16.2226 86.5522 15.7266C85.6595 15.2165 84.9581 14.508 84.4479 13.6011C83.9378 12.68 83.6827 11.6172 83.6827 10.4127C83.6827 9.22241 83.9449 8.16671 84.4692 7.24564C84.9935 6.32456 85.7091 5.61603 86.616 5.12007C87.5229 4.6241 88.5361 4.37612 89.6556 4.37612C90.775 4.37612 91.7882 4.6241 92.6951 5.12007C93.602 5.61603 94.3177 6.32456 94.842 7.24564C95.3663 8.16671 95.6284 9.22241 95.6284 10.4127C95.6284 11.603 95.3592 12.6587 94.8207 13.5798C94.2822 14.5009 93.5454 15.2165 92.6101 15.7266C91.689 16.2226 90.6688 16.4706 89.5493 16.4706ZM89.5493 14.3663C90.1728 14.3663 90.7538 14.2175 91.2923 13.9199C91.8449 13.6223 92.2913 13.176 92.6314 12.5808C92.9715 11.9857 93.1415 11.263 93.1415 10.4127C93.1415 9.5625 92.9785 8.8469 92.6526 8.26591C92.3267 7.67075 91.8945 7.22438 91.356 6.9268C90.8175 6.62922 90.2366 6.48043 89.6131 6.48043C88.9896 6.48043 88.4086 6.62922 87.8701 6.9268C87.3458 7.22438 86.9278 7.67075 86.616 8.26591C86.3043 8.8469 86.1484 9.5625 86.1484 10.4127C86.1484 11.6739 86.4672 12.6517 87.1049 13.346C87.7567 14.0262 88.5715 14.3663 89.5493 14.3663ZM99.3629 6.5442V13.0272C99.3629 13.4665 99.4621 13.7853 99.6605 13.9837C99.8731 14.1679 100.227 14.26 100.723 14.26H102.211V16.2793H100.298C99.2071 16.2793 98.371 16.0242 97.79 15.5141C97.209 15.004 96.9185 14.175 96.9185 13.0272V6.5442H95.5369V4.56742H96.9185V1.65539H99.3629V4.56742H102.211V6.5442H99.3629ZM83.4492 34.2793H80.4735L73.7354 24.0978V34.2793H70.7596V19.4216H73.7354L80.4735 29.6243V19.4216H83.4492V34.2793ZM84.1369 28.349C84.1369 27.1586 84.3707 26.1029 84.8383 25.1819C85.3201 24.2608 85.9649 23.5523 86.7726 23.0563C87.5945 22.5603 88.5085 22.3124 89.5146 22.3124C90.3932 22.3124 91.1584 22.4895 91.8102 22.8437C92.4762 23.198 93.0076 23.6444 93.4044 24.1829V22.5037H96.4014V34.2793H93.4044V32.5576C93.0218 33.1102 92.4904 33.5708 91.8102 33.9392C91.1442 34.2935 90.3719 34.4706 89.4933 34.4706C88.5014 34.4706 87.5945 34.2155 86.7726 33.7054C85.9649 33.1953 85.3201 32.4796 84.8383 31.5586C84.3707 30.6233 84.1369 29.5535 84.1369 28.349ZM93.4044 28.3915C93.4044 27.6688 93.2627 27.0524 92.9793 26.5422C92.6959 26.0179 92.3133 25.6212 91.8315 25.3519C91.3497 25.0685 90.8324 24.9268 90.2798 24.9268C89.7271 24.9268 89.217 25.0614 88.7494 25.3307C88.2818 25.5999 87.8992 25.9967 87.6016 26.521C87.3182 27.0311 87.1765 27.6404 87.1765 28.349C87.1765 29.0575 87.3182 29.681 87.6016 30.2195C87.8992 30.7438 88.2818 31.1476 88.7494 31.431C89.2312 31.7144 89.7413 31.8561 90.2798 31.8561C90.8324 31.8561 91.3497 31.7215 91.8315 31.4523C92.3133 31.1689 92.6959 30.7721 92.9793 30.262C93.2627 29.7377 93.4044 29.1142 93.4044 28.3915ZM112.444 22.3336C113.889 22.3336 115.051 22.78 115.93 23.6727C116.822 24.5513 117.269 25.7841 117.269 27.3712V34.2793H114.293V27.7751C114.293 26.854 114.059 26.1525 113.592 25.6707C113.124 25.1748 112.486 24.9268 111.679 24.9268C110.871 24.9268 110.226 25.1748 109.744 25.6707C109.277 26.1525 109.043 26.854 109.043 27.7751V34.2793H106.067V27.7751C106.067 26.854 105.833 26.1525 105.366 25.6707C104.898 25.1748 104.26 24.9268 103.453 24.9268C102.631 24.9268 101.979 25.1748 101.497 25.6707C101.03 26.1525 100.796 26.854 100.796 27.7751V34.2793H97.8199V22.5037H100.796V23.9278C101.178 23.4318 101.667 23.0421 102.262 22.7587C102.872 22.4753 103.538 22.3336 104.26 22.3336C105.181 22.3336 106.003 22.532 106.726 22.9288C107.449 23.3114 108.008 23.864 108.405 24.5867C108.788 23.9065 109.34 23.361 110.063 22.95C110.8 22.5391 111.594 22.3336 112.444 22.3336ZM129.551 28.1364C129.551 28.5615 129.523 28.9441 129.466 29.2842H120.858C120.929 30.1344 121.226 30.8005 121.751 31.2822C122.275 31.764 122.92 32.0049 123.685 32.0049C124.79 32.0049 125.577 31.5302 126.044 30.5808H129.254C128.914 31.7144 128.262 32.6497 127.298 33.3866C126.335 34.1093 125.152 34.4706 123.749 34.4706C122.615 34.4706 121.595 34.2226 120.688 33.7266C119.795 33.2165 119.094 32.5009 118.584 31.5798C118.088 30.6587 117.84 29.596 117.84 28.3915C117.84 27.1728 118.088 26.1029 118.584 25.1819C119.08 24.2608 119.774 23.5523 120.667 23.0563C121.559 22.5603 122.587 22.3124 123.749 22.3124C124.868 22.3124 125.867 22.5532 126.746 23.035C127.638 23.5168 128.326 24.2041 128.808 25.0968C129.303 25.9754 129.551 26.9886 129.551 28.1364ZM126.469 27.2862C126.455 26.521 126.179 25.9116 125.64 25.4582C125.102 24.9906 124.443 24.7568 123.664 24.7568C122.927 24.7568 122.303 24.9835 121.793 25.4369C121.297 25.8762 120.993 26.4926 120.879 27.2862H126.469ZM134.742 34.4706C133.778 34.4706 132.914 34.3006 132.149 33.9605C131.383 33.6062 130.774 33.1315 130.321 32.5363C129.881 31.9412 129.64 31.2822 129.598 30.5596H132.595C132.652 31.013 132.871 31.3885 133.254 31.6861C133.651 31.9837 134.14 32.1325 134.721 32.1325C135.287 32.1325 135.727 32.0191 136.038 31.7924C136.364 31.5657 136.527 31.2752 136.527 30.9209C136.527 30.5383 136.329 30.2549 135.932 30.0707C135.55 29.8723 134.933 29.6597 134.083 29.433C133.204 29.2204 132.482 29.0008 131.915 28.7741C131.362 28.5473 130.88 28.2002 130.469 27.7325C130.073 27.2649 129.874 26.6343 129.874 25.8408C129.874 25.189 130.059 24.5938 130.427 24.0553C130.81 23.5168 131.348 23.0917 132.042 22.78C132.751 22.4682 133.58 22.3124 134.529 22.3124C135.932 22.3124 137.052 22.6666 137.888 23.3751C138.724 24.0695 139.184 25.0118 139.269 26.2021H136.421C136.379 25.7345 136.18 25.3661 135.826 25.0968C135.486 24.8134 135.025 24.6717 134.444 24.6717C133.906 24.6717 133.488 24.7709 133.19 24.9693C132.907 25.1677 132.765 25.444 132.765 25.7983C132.765 26.1951 132.963 26.4997 133.36 26.7123C133.757 26.9107 134.373 27.1161 135.209 27.3287C136.06 27.5412 136.761 27.7609 137.314 27.9876C137.866 28.2143 138.341 28.5686 138.738 29.0504C139.149 29.518 139.361 30.1415 139.376 30.9209C139.376 31.6011 139.184 32.2104 138.802 32.7489C138.433 33.2874 137.895 33.7125 137.186 34.0242C136.492 34.3218 135.677 34.4706 134.742 34.4706Z" fill="#333333"/>
</svg>
