<svg width="33" height="25" viewBox="0 0 33 25" fill="none" xmlns="http://www.w3.org/2000/svg">
<path d="M27.9357 2.07341C25.832 1.11514 23.5771 0.406848 21.219 0.00409718C21.198 2.5112e-05 21.1763 0.0026493 21.1568 0.0116069C21.1374 0.0205644 21.1212 0.0354122 21.1104 0.0540939C20.8217 0.56656 20.4999 1.23457 20.2744 1.76232C17.7735 1.38489 15.231 1.38489 12.73 1.76232C12.4789 1.17744 12.1957 0.607147 11.8817 0.0540939C11.871 0.0351822 11.8549 0.0199986 11.8355 0.0105692C11.8161 0.00113974 11.7943 -0.00208711 11.7731 0.00131946C9.41639 0.404071 7.16145 1.11236 5.05639 2.07202C5.03828 2.07969 5.02293 2.09277 5.01239 2.10951C0.733515 8.46326 -0.439326 14.6601 0.136782 20.7791C0.138385 20.7941 0.142991 20.8086 0.150318 20.8217C0.157646 20.8349 0.167543 20.8464 0.179406 20.8555C2.67687 22.6921 5.46247 24.0912 8.41954 24.9941C8.44016 25.0005 8.4622 25.0005 8.48281 24.9941C8.50341 24.9876 8.52161 24.9751 8.53504 24.958C9.17136 24.0984 9.73524 23.1865 10.2207 22.2318C10.2275 22.2188 10.2314 22.2044 10.2321 22.1897C10.2329 22.175 10.2305 22.1603 10.2252 22.1466C10.2198 22.1329 10.2116 22.1205 10.2011 22.1103C10.1907 22.1001 10.1781 22.0923 10.1644 22.0874C9.27615 21.7495 8.41553 21.3418 7.59044 20.868C7.57562 20.8595 7.56312 20.8473 7.55408 20.8327C7.54504 20.8181 7.53974 20.8014 7.53865 20.7842C7.53756 20.767 7.54072 20.7498 7.54784 20.7341C7.55496 20.7184 7.56582 20.7048 7.57944 20.6944C7.75269 20.5652 7.92593 20.4305 8.09093 20.2958C8.10578 20.2837 8.12367 20.276 8.1426 20.2735C8.16154 20.2711 8.18078 20.274 8.19817 20.2819C13.5976 22.7318 19.4453 22.7318 24.7816 20.2819C24.799 20.2735 24.8184 20.2702 24.8377 20.2724C24.8569 20.2747 24.8751 20.2823 24.8902 20.2944C25.0552 20.4305 25.2271 20.5652 25.4017 20.6944C25.4154 20.7046 25.4265 20.718 25.4338 20.7336C25.4412 20.7491 25.4446 20.7662 25.4438 20.7834C25.4429 20.8006 25.4379 20.8174 25.4291 20.8321C25.4204 20.8469 25.4081 20.8592 25.3934 20.868C24.5712 21.3457 23.716 21.7499 22.8181 22.086C22.8043 22.091 22.7918 22.099 22.7813 22.1094C22.7708 22.1197 22.7626 22.1322 22.7573 22.146C22.7519 22.1598 22.7496 22.1746 22.7503 22.1894C22.7511 22.2042 22.755 22.2186 22.7618 22.2318C23.2567 23.1859 23.8232 24.0942 24.4461 24.9566C24.459 24.9743 24.4771 24.9876 24.4977 24.9945C24.5184 25.0015 24.5407 25.0018 24.5616 24.9955C27.5237 24.0951 30.3139 22.6954 32.8141 20.8555C32.8263 20.8469 32.8365 20.8357 32.8441 20.8228C32.8517 20.8099 32.8565 20.7955 32.8581 20.7805C33.5456 13.706 31.7059 7.55916 27.9783 2.11229C27.9692 2.09459 27.9541 2.08079 27.9357 2.07341ZM11.0278 17.053C9.40264 17.053 8.06205 15.5684 8.06205 13.7476C8.06205 11.9255 9.37652 10.4423 11.0278 10.4423C12.6915 10.4423 14.0198 11.938 13.9936 13.7476C13.9936 15.5697 12.6792 17.053 11.0278 17.053ZM21.9931 17.053C20.3666 17.053 19.0274 15.5684 19.0274 13.7476C19.0274 11.9255 20.3404 10.4423 21.9931 10.4423C23.6569 10.4423 24.9851 11.938 24.9589 13.7476C24.9589 15.5697 23.6582 17.053 21.9931 17.053Z" fill="#FD71B0"/>
</svg>
