<svg width="81" height="72" viewBox="0 0 81 72" fill="none" xmlns="http://www.w3.org/2000/svg">
<g id="Image icon">
<g id="Image icon_2">
<path d="M40.742 71.2394C29.0229 71.2394 17.3038 71.2394 5.58474 71.2394C5.01227 71.2394 4.4324 71.2394 3.85747 71.1802C0.923584 70.9063 -0.255893 68.9298 0.995142 66.2575C2.08085 63.9503 3.26526 61.7024 4.41513 59.42C9.84369 48.6731 15.2722 37.9278 20.7008 27.1842C20.8686 26.856 21.0438 26.5279 21.2387 26.2145C22.6057 24.0233 24.8265 23.7149 26.576 25.605C27.8097 26.9276 28.8535 28.413 29.954 29.8467C35.5471 37.1555 41.1401 44.4676 46.7332 51.783C49.176 54.9661 52.253 55.1388 55.1228 52.2765C56.5465 50.8552 57.9382 49.3969 59.3792 47.9879C61.9775 45.4464 64.9262 45.5993 67.0483 48.5628C71.3073 54.5096 75.4601 60.5353 79.6327 66.5412C79.9588 67.0124 80.2086 67.532 80.3729 68.081C80.7776 69.4603 80.2051 70.5707 78.8061 70.9384C77.9288 71.1484 77.0282 71.2454 76.1263 71.2271C64.3381 71.2468 52.5434 71.2509 40.742 71.2394Z" fill="#D4D2E3"/>
<path d="M67.0236 12.352C67.0206 14.6458 66.3366 16.8871 65.0582 18.7917C63.7799 20.6963 61.9648 22.1785 59.8431 23.0503C57.7213 23.9221 55.3885 24.1442 53.1404 23.6886C50.8922 23.233 48.83 22.1201 47.2151 20.491C45.6003 18.8619 44.5055 16.79 44.0696 14.5379C43.6336 12.2859 43.8762 9.95513 44.7666 7.84113C45.6569 5.72712 47.1549 3.92508 49.0707 2.66347C50.9864 1.40186 53.2336 0.737493 55.5274 0.754595C58.5818 0.793409 61.4987 2.03091 63.6492 4.20032C65.7997 6.36974 67.0115 9.29732 67.0236 12.352Z" fill="#D4D2E3"/>
</g>
</g>
</svg>
