<svg width="43" height="43" viewBox="0 0 43 43" fill="none" xmlns="http://www.w3.org/2000/svg">
<path d="M33.8485 17.4344H32.0814C29.8856 17.4344 28.1055 19.2145 28.1055 21.4104C28.1055 23.6062 29.8856 25.3863 32.0814 25.3863H33.8485C36.0444 25.3863 37.8245 23.6062 37.8245 21.4104C37.8245 19.2145 36.0444 17.4344 33.8485 17.4344Z" stroke="white" stroke-width="2.38558"/>
<path d="M17.9434 9.92425H23.2447C26.6516 9.92425 28.9402 9.92989 30.6474 10.1594C32.2782 10.3787 32.9762 10.7576 33.4369 11.2182C33.8974 11.6788 34.2763 12.3767 34.4956 14.0076C34.6348 15.0432 34.6917 16.2928 34.7149 17.8762H37.3661C37.3026 13.4945 36.9777 11.0104 35.3111 9.34389C33.241 7.27361 29.9087 7.27361 23.2447 7.27361H17.9434C11.2793 7.27361 7.94721 7.27361 5.87692 9.34389C3.80664 11.4142 3.80664 14.7462 3.80664 21.4104C3.80664 28.0744 3.80664 31.4066 5.87692 33.4768C7.94721 35.5471 11.2793 35.5471 17.9434 35.5471H23.2447C29.9087 35.5471 33.241 35.5471 35.3111 33.4768C36.9777 31.8103 37.3026 29.3262 37.3661 24.9446H34.7149C34.6917 26.5279 34.6348 27.7776 34.4956 28.8131C34.2763 30.4439 33.8974 31.1419 33.4369 31.6026C32.9762 32.0631 32.2782 32.442 30.6474 32.6613C28.9402 32.8908 26.6516 32.8965 23.2447 32.8965H17.9434C14.5364 32.8965 12.2478 32.8908 10.5406 32.6613C8.90976 32.442 8.21178 32.0631 7.7512 31.6026C7.29064 31.1419 6.91169 30.4439 6.69243 28.8131C6.46292 27.1059 6.45728 24.8173 6.45728 21.4104C6.45728 18.0034 6.46292 15.7148 6.69243 14.0076C6.91169 12.3767 7.29064 11.6788 7.7512 11.2182C8.21178 10.7576 8.90976 10.3787 10.5406 10.1594C12.2478 9.92989 14.5364 9.92425 17.9434 9.92425Z" fill="white"/>
<path d="M12.2012 16.5508H21.9202" stroke="white" stroke-width="2.38558" stroke-linecap="round"/>
</svg>
