<svg width="258" height="215" viewBox="0 0 258 215" fill="none" xmlns="http://www.w3.org/2000/svg">
<g clip-path="url(#clip0_107_161)">
<mask id="mask0_107_161" style="mask-type:luminance" maskUnits="userSpaceOnUse" x="0" y="0" width="258" height="258">
<path d="M0 0H258V258H0V0Z" fill="white"/>
</mask>
<g mask="url(#mask0_107_161)">
<path opacity="0.5" d="M129 258C111.152 258 94.3819 254.609 78.69 247.837C63.4039 241.344 49.5014 231.986 37.7325 220.268C26.0145 208.498 16.6565 194.596 10.1634 179.31C3.39086 163.618 0 146.848 0 129C0 111.152 3.39086 94.3819 10.1634 78.69C16.6563 63.4039 26.0143 49.5014 37.7325 37.7325C49.5035 26.0145 63.4053 16.6539 78.69 10.1541C94.3819 3.38164 111.152 0 129 0C146.848 0 163.618 3.38164 179.31 10.1541C194.595 16.6539 208.497 26.0145 220.268 37.7325C231.986 49.5014 241.344 63.4039 247.837 78.69C254.609 94.3819 258 111.152 258 129C258 146.848 254.609 163.618 247.837 179.31C241.344 194.596 231.986 208.499 220.268 220.268C208.499 231.986 194.596 241.344 179.31 247.837C163.618 254.609 146.848 258 129 258ZM129 232.2C157.592 232.2 181.945 222.156 202.051 202.051C222.156 181.945 232.2 157.592 232.2 129C232.2 100.408 222.156 76.0547 202.051 55.9491C181.945 35.8436 157.592 25.8 129 25.8C100.408 25.8 76.0547 35.8436 55.9584 55.9491C35.8528 76.0547 25.8 100.408 25.8 129C25.8 157.592 35.8528 181.945 55.9584 202.051C76.0547 222.156 100.408 232.2 129 232.2Z" fill="#F85888"/>
<path fill-rule="evenodd" clip-rule="evenodd" d="M69.9826 194.468L150.608 156.735C151.898 156.09 153.077 155.233 154.155 154.155C155.201 153.119 156.072 151.921 156.735 150.608L194.468 69.9825C195.546 67.8356 195.269 65.9559 193.657 64.3434C192.044 62.7309 190.165 62.4545 188.018 63.5325L107.393 101.265C106.103 101.91 104.923 102.767 103.845 103.845C102.767 104.923 101.91 106.103 101.265 107.393L63.5326 188.018C62.4545 190.164 62.7309 192.044 64.3434 193.657C65.9559 195.269 67.8357 195.546 69.9826 194.468ZM129 141.9C127.296 141.944 125.601 141.636 124.021 140.998C122.441 140.359 121.009 139.402 119.813 138.187C118.599 136.991 117.642 135.559 117.003 133.979C116.365 132.399 116.057 130.704 116.1 129C116.1 125.342 117.335 122.274 119.813 119.804C122.283 117.335 125.342 116.1 129 116.1C132.658 116.1 135.727 117.335 138.196 119.804C140.665 122.283 141.9 125.342 141.9 129C141.9 132.658 140.665 135.717 138.196 138.187C136.998 139.401 135.564 140.356 133.982 140.995C132.401 141.633 130.705 141.941 129 141.9Z" fill="#F85888"/>
</g>
</g>
<defs>
<clipPath id="clip0_107_161">
<rect width="258" height="258" fill="white"/>
</clipPath>
</defs>
</svg>
