<svg width="299" height="248" viewBox="0 0 299 248" fill="none" xmlns="http://www.w3.org/2000/svg">
<g clip-path="url(#clip0_111_94)">
<path d="M236.708 37.375H62.2917C48.5252 37.375 37.375 48.5252 37.375 62.2917V236.708C37.375 250.475 48.5252 261.625 62.2917 261.625H236.708C250.475 261.625 261.625 250.475 261.625 236.708V62.2917C261.625 48.5252 250.475 37.375 236.708 37.375ZM74.75 74.75H137.042V137.042H74.75V74.75ZM130.812 236.708C113.62 236.708 99.6667 222.755 99.6667 205.562C99.6667 188.37 113.62 174.417 130.812 174.417C148.005 174.417 161.958 188.37 161.958 205.562C161.958 222.755 148.005 236.708 130.812 236.708ZM168.188 161.958L205.562 99.6667L242.938 161.958H168.188Z" fill="#F85888"/>
</g>
<defs>
<clipPath id="clip0_111_94">
<rect width="299" height="299" fill="white"/>
</clipPath>
</defs>
</svg>
