<svg width="247" height="212" viewBox="0 0 247 212" fill="none" xmlns="http://www.w3.org/2000/svg">
<g clip-path="url(#clip0_107_155)">
<path d="M222.516 131.651C220.581 129.397 219.516 126.5 219.516 123.5C219.516 120.5 220.581 117.603 222.516 115.349L237.933 97.5701C239.634 95.6044 240.686 93.1606 240.944 90.5738C241.202 87.9869 240.653 85.3836 239.374 83.1206L215.291 40.3948C214.04 38.155 212.113 36.3682 209.785 35.2901C207.477 34.2262 204.887 33.9374 202.401 34.4668L179.754 39.1598C176.867 39.7704 173.856 39.2765 171.315 37.7756C168.747 36.2535 166.82 33.848 165.896 31.0088L158.543 8.41343C157.745 5.97606 156.207 3.84811 154.143 2.32591C152.085 0.818177 149.625 0.0102816 147.099 0.0154274H98.9132C96.2775 -0.123678 93.671 0.622588 91.5083 2.13551C89.3368 3.65353 87.7004 5.85595 86.8668 8.41343L80.1206 31.0088C79.1969 33.848 77.2706 36.2535 74.7021 37.7756C72.1619 39.2783 69.1507 39.774 66.2629 39.1649L43.0192 34.4616C40.6627 34.122 38.2587 34.5042 36.1237 35.5577C33.966 36.6249 32.1733 38.3083 30.9728 40.3948L6.87997 83.1155C5.56773 85.3546 4.97913 87.9445 5.19466 90.5308C5.41019 93.1172 6.41933 95.5739 8.0841 97.565L23.3827 115.344C25.3123 117.598 26.3775 120.495 26.3775 123.495C26.3775 126.495 25.3123 129.392 23.3827 131.646L8.07895 149.43C6.41419 151.421 5.40504 153.878 5.18951 156.464C4.97398 159.05 5.56258 161.64 6.87483 163.879L30.9676 206.605C32.2335 208.859 34.158 210.645 36.4737 211.71C38.7893 212.77 41.3725 213.058 43.8579 212.533L66.5047 207.84C69.3913 207.228 72.4024 207.72 74.9439 209.219C77.4911 210.722 79.4208 213.13 80.3625 215.991L87.7107 238.587C88.5443 241.144 90.1807 243.346 92.3523 244.864C94.5289 246.377 97.1276 247.129 99.7571 246.985H147.943C150.464 246.99 152.934 246.182 154.987 244.674C157.041 243.171 158.579 241.041 159.387 238.587L166.735 215.991C167.658 213.15 169.585 210.743 172.154 209.219C174.695 207.72 177.706 207.228 180.593 207.84L203.235 212.533C205.72 213.058 208.308 212.77 210.619 211.71C212.935 210.645 214.864 208.859 216.125 206.605L240.223 163.879C241.502 161.616 242.05 159.013 241.792 156.426C241.534 153.84 240.483 151.396 238.782 149.43L222.516 131.651ZM204.562 148.195L214.2 159.31L198.784 186.722L184.566 183.758C175.878 181.941 166.825 183.457 159.202 188.003C151.489 192.619 145.729 199.893 143.003 208.458L138.423 222.285H107.584L103.251 208.211C100.525 199.646 94.7645 192.372 87.052 187.756C79.4277 183.208 70.3726 181.693 61.6831 183.511L47.4703 186.475L31.8115 159.186L41.4497 148.071C47.3973 141.22 50.6654 132.449 50.6504 123.376C50.6504 114.268 47.3777 105.469 41.4497 98.6765L31.8115 87.5615L47.2336 60.4018L61.4464 63.3658C70.1223 65.1823 79.1481 63.6745 86.8102 59.1205C94.5226 54.5047 100.283 47.2306 103.009 38.6658L107.589 24.7154H138.423L143.003 38.7893C145.727 47.3533 151.486 54.6272 159.197 59.244C166.821 63.7915 175.876 65.3068 184.566 63.4893L198.778 60.5253L214.195 87.9371L204.557 99.0521C198.677 105.887 195.45 114.608 195.464 123.623C195.464 132.68 198.706 141.423 204.562 148.195Z" fill="#F85888"/>
<path fill-rule="evenodd" clip-rule="evenodd" d="M123.006 74.1052C113.446 74.1143 104.112 77.0169 96.2322 82.4311C88.264 87.9134 82.0903 95.6247 78.4842 104.599C74.8362 113.649 73.8854 123.56 75.7467 133.138C77.5818 142.672 82.1643 151.462 88.9303 158.425C95.6142 165.302 104.211 170.012 113.605 171.943C122.955 173.847 132.644 172.869 141.444 169.133C150.3 165.353 157.829 159.02 163.071 150.943C168.383 142.776 171.208 133.242 171.202 123.5C171.227 110.464 166.162 97.9332 157.087 88.5752C152.661 84.0096 147.366 80.3769 141.513 77.8916C135.661 75.4063 129.37 74.1188 123.011 74.1052H123.006ZM123.006 148.195C118.227 148.191 113.561 146.742 109.622 144.037C105.636 141.296 102.549 137.441 100.745 132.953C98.9208 128.428 98.4454 123.472 99.3763 118.684C100.293 113.915 102.584 109.518 105.968 106.035C109.311 102.597 113.61 100.243 118.308 99.2786C122.983 98.3262 127.837 98.8161 132.227 100.683C136.655 102.575 140.419 105.742 143.039 109.781C145.689 113.841 147.104 118.617 147.104 123.5C147.117 130.019 144.584 136.286 140.044 140.965C137.831 143.246 135.184 145.061 132.259 146.303C129.334 147.545 126.189 148.188 123.011 148.195H123.006Z" fill="#FFA7C1"/>
</g>
<defs>
<clipPath id="clip0_107_155">
<rect width="247" height="247" fill="white"/>
</clipPath>
</defs>
</svg>
