<svg width="318" height="500" viewBox="0 0 318 500" fill="none" xmlns="http://www.w3.org/2000/svg">
<path fill-rule="evenodd" clip-rule="evenodd" d="M283.204 65.6746C281.704 62.0046 279.144 58.8653 275.85 56.6584C272.556 54.4515 268.679 53.2772 264.714 53.2857H184.786C179.486 53.2857 174.404 55.3909 170.656 59.1383C166.909 62.8857 164.804 67.9682 164.804 73.2678C164.804 78.5674 166.909 83.65 170.656 87.3973C174.404 91.1447 179.486 93.25 184.786 93.25H216.477L171.464 138.263L125.639 92.4374C123.749 90.5505 121.501 89.0616 119.026 88.0584C116.551 87.0552 113.901 86.5582 111.231 86.5967C108.561 86.6352 105.926 87.2084 103.481 88.2825C101.036 89.3566 98.8317 90.9098 96.9975 92.8503L-16.2347 212.743C-18.1017 214.637 -19.5717 216.885 -20.5588 219.355C-21.5458 221.824 -22.0299 224.466 -21.9827 227.125C-21.9354 229.784 -21.3579 232.407 -20.2838 234.84C-19.2098 237.273 -17.6608 239.467 -15.7278 241.294C-13.7948 243.121 -11.5165 244.543 -9.02666 245.478C-6.53679 246.412 -3.88537 246.841 -1.22783 246.738C1.42971 246.634 4.03989 246.002 6.44973 244.876C8.85956 243.751 11.0206 242.156 12.806 240.185L111.917 135.239L157.344 180.652C161.09 184.394 166.169 186.496 171.464 186.496C176.76 186.496 181.838 184.394 185.585 180.652L244.732 121.505V159.857C244.732 165.157 246.837 170.239 250.585 173.987C254.332 177.734 259.415 179.839 264.714 179.839C270.014 179.839 275.096 177.734 278.844 173.987C282.591 170.239 284.696 165.157 284.696 159.857V72.9614C284.662 70.4603 284.156 67.9881 283.204 65.6746Z" fill="#F85888"/>
<path fill-rule="evenodd" clip-rule="evenodd" d="M64.7609 235.273C70.071 235.273 75.1636 237.5 78.9184 241.463C82.6732 245.427 84.7826 250.803 84.7826 256.409L88.5374 500.018C88.5374 505.624 86.428 511 82.6732 514.964C78.9184 518.928 73.8258 521.155 68.5157 521.155C63.2056 521.155 58.113 518.928 54.3582 514.964C50.6034 511 48.4939 505.624 48.4939 500.018L44.7391 256.409C44.7391 250.803 46.8485 245.427 50.6034 241.463C54.3582 237.5 59.4508 235.273 64.7609 235.273ZM-1.97826 277.545C3.33183 277.545 8.42444 279.772 12.1792 283.736C15.9341 287.7 18.0435 293.076 18.0435 298.682L21.7983 500.018C21.7983 505.624 19.6889 511 15.9341 514.964C12.1792 518.928 7.08664 521.155 1.77654 521.155C-3.53355 521.155 -8.62616 518.928 -12.381 514.964C-16.1358 511 -18.2452 505.624 -18.2452 500.018L-22 298.682C-22 293.076 -19.8906 287.7 -16.1358 283.736C-12.381 279.772 -7.28835 277.545 -1.97826 277.545ZM131.5 193C136.81 193 141.903 195.227 145.658 199.191C149.412 203.155 151.522 208.531 151.522 214.136L155.277 500.018C155.277 505.624 153.167 511 149.412 514.964C145.658 518.928 140.565 521.155 135.255 521.155C129.945 521.155 124.852 518.928 121.097 514.964C117.342 511 115.233 505.624 115.233 500.018L111.478 214.136C111.478 208.531 113.588 203.155 117.342 199.191C121.097 195.227 126.19 193 131.5 193ZM198.239 235.273C203.549 235.273 208.642 237.5 212.397 241.463C216.151 245.427 218.261 250.803 218.261 256.409L222.016 500.018C222.016 505.624 219.906 511 216.151 514.964C212.397 518.928 207.304 521.155 201.994 521.155C196.684 521.155 191.591 518.928 187.836 514.964C184.082 511 181.972 505.624 181.972 500.018L178.217 256.409C178.217 250.803 180.327 245.427 184.082 241.463C187.836 237.5 192.929 235.273 198.239 235.273ZM264.978 207.091C270.288 207.091 275.381 209.318 279.136 213.282C282.891 217.245 285 222.622 285 228.227L288.755 500.018C288.755 505.624 286.645 511 282.891 514.964C279.136 518.928 274.043 521.155 268.733 521.155C263.423 521.155 258.33 518.928 254.576 514.964C250.821 511 248.711 505.624 248.711 500.018L244.957 228.227C244.957 222.622 247.066 217.245 250.821 213.282C254.576 209.318 259.668 207.091 264.978 207.091Z" fill="#F85888" fill-opacity="0.5"/>
</svg>
